<svg width="1580" height="741" viewBox="0 0 1580 741" fill="none" xmlns="http://www.w3.org/2000/svg">
<path d="M304.734 331.624C305.17 332.134 305.772 332.565 306.249 333.055C312.35 340.187 321.542 344.85 332 344.85C350.322 344.85 365.179 330.84 365.179 313.52C365.179 304.311 360.905 296.14 354.244 290.399C353.372 289.478 352.584 288.538 351.297 287.617L217.19 191.255C213.289 188.413 207.666 188.276 203.578 191.255C198.702 194.801 197.789 201.424 201.545 206.028L304.734 331.624Z" fill="black" fill-opacity="0.28"/>
<path d="M332 52.3741C328.369 52.3741 324.821 52.766 321.231 52.8835V63.7189H320.92V177.676H343.039V73.7901C478.205 79.3155 586.416 184.554 586.416 313.5C586.416 445.973 472.291 553.739 331.979 553.739C191.668 553.739 77.5427 445.973 77.5427 313.5C77.5427 247.254 106.074 187.199 152.16 143.701L136.431 128.849C86.3615 176.089 55.4025 241.395 55.4025 313.5C55.4025 457.73 179.197 574.626 331.959 574.626C484.72 574.626 608.515 457.73 608.515 313.5C608.515 169.27 484.72 52.3741 331.959 52.3741H332Z" fill="black" fill-opacity="0.28"/>
<g clip-path="url(#clip0_30_97)">
<path d="M1232.29 364.474C1231.76 364.673 1231.26 365.025 1230.73 365.263C1223.39 368.056 1217.14 373.973 1214.22 382.195C1209.1 396.6 1216.02 412.215 1229.72 417.08C1237 419.666 1244.65 418.6 1251.05 414.976C1252.02 414.55 1252.98 414.194 1254.07 413.441L1367.7 335.071C1371.04 332.802 1372.72 328.42 1371.51 324.37C1370.07 319.54 1365.09 316.962 1360.4 318.622L1232.29 364.474Z" fill="black" fill-opacity="0.28"/>
<path d="M1445.42 464.339C1446.44 461.485 1447.12 458.585 1448.03 455.73L1439.46 452.686L1439.55 452.442L1349.46 420.436L1343.29 437.826L1425.41 467.003C1383.29 571.717 1269.87 627.235 1167.94 591.019C1063.21 553.813 1009.9 433.822 1049.1 323.511C1088.29 213.199 1205.36 153.742 1310.08 190.948C1362.44 209.554 1401.95 248.852 1423.46 297.301L1439.6 289.107C1416.24 236.474 1373.26 193.793 1316.26 173.542C1202.25 133.034 1075.26 197.528 1032.59 317.628C989.92 437.728 1047.75 567.885 1161.76 608.393C1275.78 648.901 1402.76 584.406 1445.43 464.307L1445.42 464.339Z" fill="black" fill-opacity="0.28"/>
</g>
<defs>
<clipPath id="clip0_30_97">
<rect width="554" height="526" fill="white" transform="translate(1579.56 218.034) rotate(109.56)"/>
</clipPath>
</defs>
</svg>
