<svg width="1648" height="563" viewBox="0 0 1648 563" fill="none" xmlns="http://www.w3.org/2000/svg">
<path fill-rule="evenodd" clip-rule="evenodd" d="M1411.84 561.355C1400.65 561.355 1391.11 553.034 1389.28 541.69C1387.6 532.512 1381.17 525.013 1372.52 522.15C1365.47 519.663 1358.58 516.73 1351.89 513.368C1343.92 509.181 1334.36 509.808 1326.97 514.999C1318.04 521.601 1305.76 520.578 1297.97 512.584L1267.69 481.471C1259.54 473.096 1258.48 459.895 1265.19 450.263C1270.36 442.501 1271.1 432.493 1267.14 424.012C1264.53 418.121 1262.23 412.09 1260.24 405.946C1257.4 396.264 1249.55 389.012 1239.88 387.128C1228.22 385.214 1219.61 374.924 1219.52 362.789V323.866C1219.45 309.881 1229.29 297.919 1242.72 295.639C1252.91 293.647 1261.41 286.477 1265.31 276.601C1266.47 273.82 1267.69 271.059 1268.97 268.32C1274.15 258.078 1273.43 245.742 1267.11 236.204C1259.2 224.909 1260.41 209.39 1269.98 199.539L1292.23 176.675C1303.21 165.394 1320.52 163.934 1333.14 173.225L1333.84 173.726C1343.27 180.243 1355.26 181.423 1365.71 176.863C1376.9 172.726 1385.15 162.851 1387.42 150.862L1387.73 149.796C1390.24 133.925 1403.58 122.265 1419.23 122.258H1446.1C1462.17 122.251 1475.89 134.194 1478.52 150.486L1479 152.681C1481.16 164.166 1488.98 173.671 1499.64 177.772C1509.92 182.304 1521.73 181.12 1530.96 174.636L1532.49 173.507C1545.44 163.92 1563.24 165.395 1574.53 176.988L1595.01 198.065C1605.28 208.671 1606.57 225.35 1598.06 237.49C1591.4 247.636 1590.55 260.675 1595.83 271.645L1597.15 274.781C1601.43 285.492 1610.69 293.255 1621.75 295.419C1636.22 297.843 1646.86 310.659 1646.91 325.717V360.625C1646.91 373.904 1637.56 385.233 1624.81 387.41C1614.32 389.477 1605.78 397.277 1602.55 407.734C1601.13 411.915 1599.54 416.098 1597.79 420.279C1593.71 429.469 1594.62 440.177 1600.17 448.507C1607.49 458.976 1606.36 473.357 1597.48 482.474L1569.06 511.706C1560.94 520.055 1548.12 521.13 1538.78 514.246C1530.98 508.773 1520.89 508.171 1512.53 512.678C1506.57 515.711 1500.45 518.402 1494.21 520.738C1485.48 523.834 1479.04 531.512 1477.36 540.843C1475.58 552.582 1465.78 561.267 1454.22 561.355H1411.84Z" stroke="#686868" stroke-width="2" stroke-linecap="round" stroke-linejoin="round"/>
<path fill-rule="evenodd" clip-rule="evenodd" d="M1504.44 341.801C1504.44 382.213 1472.55 414.973 1433.21 414.973C1393.88 414.973 1361.99 382.213 1361.99 341.801C1361.99 301.388 1393.88 268.628 1433.21 268.628C1472.55 268.628 1504.44 301.388 1504.44 341.801Z" stroke="#686868" stroke-width="2" stroke-linecap="round" stroke-linejoin="round"/>
<path fill-rule="evenodd" clip-rule="evenodd" d="M259.823 516.532C244.811 516.532 232.003 506.77 229.558 493.461C227.307 482.695 218.679 473.897 207.073 470.537C197.616 467.619 188.369 464.179 179.387 460.234C168.698 455.322 155.876 456.058 145.967 462.148C133.977 469.893 117.505 468.694 107.059 459.314L66.4314 422.813C55.4972 412.988 54.0766 397.501 63.073 386.201C70.0111 377.094 71.0104 365.352 65.6941 355.402C62.1913 348.492 59.1014 341.416 56.4382 334.208C52.6236 322.849 42.0949 314.341 29.1206 312.13C13.4751 309.885 1.92477 297.813 1.80337 283.576V237.912C1.7202 221.505 14.9109 207.471 32.9297 204.796C46.5992 202.459 58.0134 194.048 63.2368 182.461C64.7931 179.198 66.4314 175.96 68.1515 172.746C75.0984 160.73 74.139 146.257 65.653 135.067C55.0411 121.816 56.6705 103.61 69.5028 92.0527L99.3597 65.2283C114.085 51.9935 137.309 50.2806 154.24 61.1807L155.182 61.7695C167.824 69.4142 183.912 70.7989 197.94 65.4491C212.947 60.596 224.009 49.0101 227.059 34.9451L227.471 33.694C230.839 15.0741 248.738 1.39482 269.737 1.38709H305.778C327.339 1.37826 345.742 15.3906 349.271 34.5036L349.926 37.0793C352.82 50.5529 363.309 61.704 377.612 66.5162C391.398 71.8321 407.251 70.4438 419.634 62.8366L421.68 61.5119C439.049 50.2648 462.934 51.9946 478.077 65.5963L505.557 90.3232C519.331 102.766 521.062 122.333 509.653 136.576C500.714 148.48 499.576 163.777 506.662 176.647L508.426 180.326C514.164 192.892 526.585 201.999 541.434 204.538C560.845 207.383 575.119 222.418 575.182 240.083V281.037C575.178 296.617 562.635 309.908 545.53 312.461C531.462 314.886 520.003 324.037 515.672 336.305C513.761 341.21 511.631 346.119 509.283 351.023C503.818 361.805 505.032 374.367 512.48 384.14C522.305 396.423 520.78 413.294 508.876 423.99L470.747 458.284C459.842 468.079 442.645 469.341 430.119 461.265C419.66 454.844 406.113 454.137 394.897 459.425C386.903 462.983 378.7 466.14 370.324 468.881C358.608 472.513 349.972 481.521 347.716 492.468C345.326 506.24 332.183 516.429 316.67 516.532H259.823Z" stroke="#686868" stroke-width="2" stroke-linecap="round" stroke-linejoin="round"/>
<path fill-rule="evenodd" clip-rule="evenodd" d="M384.043 258.953C384.043 306.365 341.264 344.798 288.492 344.798C235.721 344.798 192.943 306.365 192.943 258.953C192.943 211.541 235.721 173.107 288.492 173.107C341.264 173.107 384.043 211.541 384.043 258.953Z" stroke="#686868" stroke-width="2" stroke-linecap="round" stroke-linejoin="round"/>
</svg>
