<svg width="86" height="105" viewBox="0 0 86 105" fill="none" xmlns="http://www.w3.org/2000/svg">
<path d="M0 0V4.34766H0.145762V100.611V101.062V105H30.8531H39.7446H45.478H54.3695H86V101.062V100.611V53.8125V51.2695V4.34766V2.17383V0H0ZM58.3051 28.2598L57.6734 28.793C56.2644 29.9824 54.3209 30.5977 52.426 30.5977H51.1627V24.3223C51.9401 23.1328 52.426 21.7793 52.426 20.3027C52.426 18.8262 51.9887 17.4727 51.1627 16.2832V4.34766H58.3051V28.2598ZM62.7751 4.34766H67.4881C67.2452 4.79883 67.148 5.25 67.148 5.7832V20.7539L62.7751 24.4453V4.34766ZM29.2011 51.2695H27.8893V39.2109L29.2011 40.3184V40.8926V51.2695ZM39.5017 28.1367C40.4734 28.4238 41.5424 28.5879 42.6113 28.5879C44.0689 28.5879 45.4294 28.3008 46.6441 27.8496V30.6387H42.6113H39.5017V28.1367ZM58.3051 38.4727V51.2695H56.0701V40.3594L58.3051 38.4727ZM46.6441 12.7969C45.4294 12.3047 44.0689 12.0586 42.6113 12.0586C41.5424 12.0586 40.4734 12.2227 39.5017 12.5098V4.34766H46.6441V12.7969ZM35.0316 15.1348C33.6712 16.5703 32.8452 18.334 32.8452 20.3027C32.8452 22.2715 33.6712 24.0762 35.0316 25.4707V30.5977H32.8452C31.096 30.5977 29.2983 30.0645 27.8893 28.998V4.34766H35.0316V15.1348ZM23.4192 25.2656L18.0746 20.7949V5.7832C18.0746 5.29102 17.9288 4.79883 17.7345 4.34766H23.3706V25.2656H23.4192ZM23.4192 35.4375V51.2695H16.2768V29.4082L23.4192 35.4375ZM23.4192 53.8125V100.611H16.2768V53.8125H23.4192ZM27.8893 53.8125H29.2011V68.7012V100.611H27.8893V53.8125ZM41.3966 69.7266C41.3966 69.1523 41.9797 68.7012 42.6113 68.7012C43.2429 68.7012 43.826 69.1934 43.826 69.7266V100.611H41.3966V69.7266ZM56.0701 68.7012V53.8125H58.3051V100.611H56.0701V68.7012ZM62.7751 53.8125H69.9175V100.611H62.7751V53.8125ZM62.7751 51.2695V34.6992L69.9175 28.6699V51.2695H62.7751ZM9.91186 4.34766C9.66893 4.79883 9.57175 5.25 9.57175 5.7832V22.2715C9.57175 23.2969 10.0576 24.1992 10.8836 24.8555L11.7582 25.5938V51.2695H4.61582V4.34766H9.91186ZM4.61582 53.8125H11.7582V100.611H4.61582V53.8125ZM81.5299 100.652H74.3876V53.8125H81.5299V100.652ZM81.5299 51.2695H74.3876V24.8555C75.165 24.1992 75.6508 23.2969 75.6508 22.3125V5.7832C75.6508 5.29102 75.5051 4.79883 75.3107 4.34766H81.5299V51.2695Z" fill="#353535"/>
</svg>
