<svg width="97" height="73" viewBox="0 0 97 73" fill="none" xmlns="http://www.w3.org/2000/svg">
<path d="M93.9606 58.1024H3.03959C1.36122 58.1024 0 59.2627 0 60.6937V65.0095C0 73.8642 21.7149 72.741 48.5 72.741C75.2851 72.741 97 72.3876 97 65.0095V60.6937C97 59.2627 95.6388 58.1024 93.9606 58.1024Z" fill="#323232"/>
<path d="M8.134 52.2203H88.8657C91.8804 52.2203 94.3208 50.1354 94.3208 47.5634V43.4761C94.3208 40.906 91.8804 38.8229 88.8657 38.8229H81.535L69.9474 48.7132C66.9821 51.2462 62.1736 51.2462 59.2062 48.7132L47.6208 38.8229H8.134C5.11923 38.8229 2.67908 40.906 2.67908 43.4761V47.5634C2.67908 50.1354 5.11942 52.2203 8.134 52.2203Z" fill="#323232"/>
<path d="M48.5 0C21.7151 0 0 11.9892 0 27.9076V31.2618C0 32.6928 1.36122 33.8546 3.03959 33.8546H93.9606C95.6388 33.8546 97 32.6926 97 31.2618V27.9076C97 11.9892 75.2849 0 48.5 0ZM24.3838 18.2986C22.6067 18.2986 21.1693 17.0717 21.1693 15.5545C21.1693 14.039 22.6067 12.8086 24.3838 12.8086C26.1589 12.8086 27.6003 14.0392 27.6003 15.5545C27.6003 17.0717 26.1589 18.2986 24.3838 18.2986ZM38.8523 10.0643C37.0771 10.0643 35.6378 8.83544 35.6378 7.32017C35.6378 5.80296 37.0773 4.57606 38.8523 4.57606C40.6294 4.57606 42.0688 5.80296 42.0688 7.32017C42.0688 8.83561 40.6294 10.0643 38.8523 10.0643ZM48.5 21.0446C46.7248 21.0446 45.2835 19.814 45.2835 18.2987C45.2835 16.7833 46.725 15.5546 48.5 15.5546C50.2752 15.5546 51.7165 16.7835 51.7165 18.2987C51.7165 19.814 50.275 21.0446 48.5 21.0446ZM58.1477 10.0643C56.3706 10.0643 54.9312 8.83544 54.9312 7.32017C54.9312 5.80296 56.3706 4.57606 58.1477 4.57606C59.9229 4.57606 61.3622 5.80296 61.3622 7.32017C61.3622 8.83561 59.9227 10.0643 58.1477 10.0643ZM72.6161 18.2986C70.8409 18.2986 69.3995 17.0717 69.3995 15.5545C69.3995 14.039 70.8411 12.8086 72.6161 12.8086C74.3933 12.8086 75.8305 14.0392 75.8305 15.5545C75.8305 17.0717 74.3933 18.2986 72.6161 18.2986Z" fill="#323232"/>
</svg>
