<svg width="135" height="125" viewBox="0 0 135 125" fill="none" xmlns="http://www.w3.org/2000/svg">
<path fill-rule="evenodd" clip-rule="evenodd" d="M101.25 31.25V93.75H33.75V31.25H101.25ZM62.1605 46.875H55.5867L43.1061 78.125H49.0368L51.3931 72.0159H66.3333L68.639 78.125H74.9269L62.1605 46.875ZM85.4544 46.875H79.5476V78.125H85.4544V46.875ZM58.8238 52.118L64.7075 67.7083H53.0337L58.8238 52.118ZM106.875 78.125H118.125V88.5417H106.875V78.125ZM39.375 98.9583H50.625V109.375H39.375V98.9583ZM61.875 98.9583H73.125V109.375H61.875V98.9583ZM39.375 15.625H50.625V26.0417H39.375V15.625ZM84.375 98.9583H95.625V109.375H84.375V98.9583ZM61.875 15.625H73.125V26.0417H61.875V15.625ZM84.375 15.625H95.625V26.0417H84.375V15.625ZM106.875 57.2917H118.125V67.7083H106.875V57.2917ZM16.875 78.125H28.125V88.5417H16.875V78.125ZM106.875 36.4583H118.125V46.875H106.875V36.4583ZM16.875 57.2917H28.125V67.7083H16.875V57.2917ZM16.875 36.4583H28.125V46.875H16.875V36.4583Z" fill="#323232"/>
</svg>
