<svg width="38" height="39" viewBox="0 0 38 39" fill="none" xmlns="http://www.w3.org/2000/svg">
<path d="M19 0C8.50643 0 0 8.73044 0 19.5C0 30.2696 8.50643 39 19 39C29.4933 39 38 30.2696 38 19.5C38 8.73044 29.4933 0 19 0ZM28.1773 30.6761V23.1523V22.4715V22.1993V21.6508V12.289C28.1773 11.8853 27.9802 11.5087 27.6529 11.2853C27.3531 11.0801 26.9805 11.0304 26.6413 11.1435C26.61 11.1535 26.579 11.1635 26.5483 11.1764L23.4326 12.5153C23.0577 12.676 22.7907 13.0242 22.7257 13.4357L21.9212 23.122C21.8671 23.4671 21.9612 23.8201 22.18 24.0879C22.3986 24.3563 24.8525 26.5604 24.8525 26.5604V32.8292C23.0656 33.659 21.0854 34.125 19 34.125C17.7997 34.125 16.6346 33.9702 15.5203 33.6821V22.7778C15.8309 22.693 16.1243 22.5858 16.3977 22.4586C16.9309 22.211 17.3883 21.8932 17.7698 21.5451C18.3433 21.0215 18.7477 20.4359 19.0191 19.8844C19.1547 19.6076 19.2574 19.3387 19.3301 19.0782C19.3669 18.9481 19.3957 18.8195 19.4162 18.6894C19.4369 18.5593 19.4498 18.4281 19.4498 18.2861C19.4498 17.4121 19.4498 12.2913 19.4498 12.2913C19.4498 11.6245 18.923 11.0843 18.2736 11.0843C17.6242 11.0843 17.098 11.6245 17.098 12.2913C17.098 12.2913 17.098 12.3714 17.098 12.5134C17.098 13.2109 17.098 15.4064 17.098 16.9128C17.098 17.4871 16.644 17.9531 16.0839 17.9531C15.524 17.9531 15.0703 17.4871 15.0703 16.9128C15.0703 15.0992 15.0703 12.3747 15.0703 12.3747C15.0703 11.7083 14.5435 11.1676 13.8938 11.1676C13.2443 11.1676 12.7176 11.7083 12.7176 12.3747C12.7176 12.3747 12.7176 12.4551 12.7176 12.5965C12.7176 13.2816 12.7176 15.4101 12.7176 16.9128C12.7176 17.4871 12.2638 17.9531 11.7038 17.9531C11.1439 17.9531 10.6902 17.4871 10.6902 16.9128C10.6902 15.1006 10.6902 12.2913 10.6902 12.2913C10.6902 11.6245 10.1637 11.0843 9.51418 11.0843C8.86461 11.0843 8.33781 11.6245 8.33781 12.2913C8.33781 12.2913 8.33781 12.3714 8.33781 12.5134C8.33781 13.5052 8.33781 17.5211 8.33781 18.2861C8.3384 18.4126 8.34827 18.53 8.3649 18.6459C8.39666 18.8627 8.45055 19.076 8.52521 19.2978C8.65613 19.683 8.85148 20.0906 9.12401 20.5023C9.3287 20.8102 9.57711 21.1187 9.87518 21.4107C10.3215 21.8476 10.8818 22.2466 11.5573 22.5329C11.7816 22.6282 12.0194 22.709 12.2678 22.7767V32.3861C7.79675 29.9158 4.75 25.0667 4.75 19.5C4.75 11.4358 11.1424 4.875 19 4.875C26.8573 4.875 33.25 11.4358 33.25 19.5C33.25 23.9786 31.2764 27.9912 28.1773 30.6761Z" fill="#3E3E3E"/>
</svg>
