<svg width="39" height="39" viewBox="0 0 39 39" fill="none" xmlns="http://www.w3.org/2000/svg">
<path d="M19.5 0C8.73029 0 0 8.73044 0 19.5C0 30.2696 8.73029 39 19.5 39C30.2694 39 39 30.2696 39 19.5C39 8.73044 30.2694 0 19.5 0ZM28.9188 30.6761V23.1523V22.4715V22.1993V21.6508V12.289C28.9188 11.8853 28.7165 11.5087 28.3806 11.2853C28.0729 11.0801 27.6905 11.0304 27.3424 11.1435C27.3103 11.1535 27.2784 11.1635 27.2469 11.1764L24.0492 12.5153C23.6645 12.676 23.3905 13.0242 23.3238 13.4357L22.498 23.122C22.4426 23.4671 22.5391 23.8201 22.7637 24.0879C22.9881 24.3563 25.5065 26.5604 25.5065 26.5604V32.8292C23.6726 33.659 21.6403 34.125 19.5 34.125C18.2681 34.125 17.0723 33.9702 15.9287 33.6821V22.7778C16.2475 22.693 16.5486 22.5858 16.8292 22.4586C17.3764 22.211 17.8459 21.8932 18.2375 21.5451C18.826 21.0215 19.2411 20.4359 19.5196 19.8844C19.6588 19.6076 19.7642 19.3387 19.8388 19.0782C19.8766 18.9481 19.9061 18.8195 19.9272 18.6894C19.9483 18.5593 19.9617 18.4281 19.9617 18.2861C19.9617 17.4121 19.9617 12.2913 19.9617 12.2913C19.9617 11.6245 19.421 11.0843 18.7545 11.0843C18.088 11.0843 17.5479 11.6245 17.5479 12.2913C17.5479 12.2913 17.5479 12.3714 17.5479 12.5134C17.5479 13.2109 17.5479 15.4064 17.5479 16.9128C17.5479 17.4871 17.082 17.9531 16.5071 17.9531C15.9326 17.9531 15.4669 17.4871 15.4669 16.9128C15.4669 15.0992 15.4669 12.3747 15.4669 12.3747C15.4669 11.7083 14.9263 11.1676 14.2595 11.1676C13.5928 11.1676 13.0523 11.7083 13.0523 12.3747C13.0523 12.3747 13.0523 12.4551 13.0523 12.5965C13.0523 13.2816 13.0523 15.4101 13.0523 16.9128C13.0523 17.4871 12.5866 17.9531 12.0118 17.9531C11.4372 17.9531 10.9716 17.4871 10.9716 16.9128C10.9716 15.1006 10.9716 12.2913 10.9716 12.2913C10.9716 11.6245 10.4312 11.0843 9.76455 11.0843C9.09789 11.0843 8.55723 11.6245 8.55723 12.2913C8.55723 12.2913 8.55723 12.3714 8.55723 12.5134C8.55723 13.5052 8.55723 17.5211 8.55723 18.2861C8.55783 18.4126 8.56796 18.53 8.58503 18.6459C8.61763 18.8627 8.67293 19.076 8.74956 19.2978C8.88393 19.683 9.08441 20.0906 9.36411 20.5023C9.57419 20.8102 9.82914 21.1187 10.135 21.4107C10.5931 21.8476 11.1682 22.2466 11.8614 22.5329C12.0917 22.6282 12.3357 22.709 12.5907 22.7767V32.3861C8.00193 29.9158 4.875 25.0667 4.875 19.5C4.875 11.4358 11.4356 4.875 19.5 4.875C27.5641 4.875 34.125 11.4358 34.125 19.5C34.125 23.9786 32.0994 27.9912 28.9188 30.6761Z" fill="#3E3E3E"/>
</svg>
