<svg width="39" height="39" viewBox="0 0 39 39" fill="none" xmlns="http://www.w3.org/2000/svg">
<path fill-rule="evenodd" clip-rule="evenodd" d="M17.7562 36.4194C16.877 36.4194 16.127 35.7677 15.9838 34.8793C15.852 34.1606 15.3467 33.5733 14.6671 33.3491C14.1133 33.1543 13.5718 32.9246 13.0458 32.6613C12.4198 32.3334 11.6689 32.3826 11.0887 32.7891C10.3865 33.3061 9.42195 33.226 8.81026 32.5999L6.43107 30.1634C5.79077 29.5075 5.70758 28.4737 6.23441 27.7194C6.6407 27.1115 6.69922 26.3277 6.3879 25.6636C6.18277 25.2023 6.00183 24.73 5.84587 24.2488C5.62249 23.4905 5.00593 22.9227 4.24615 22.775C3.32994 22.6252 2.65356 21.8193 2.64645 20.869V17.8208C2.64158 16.7256 3.41402 15.7888 4.46921 15.6102C5.2697 15.4543 5.93812 14.8928 6.244 14.1193C6.33514 13.9015 6.43107 13.6854 6.53181 13.4709C6.93862 12.6688 6.88243 11.7027 6.38549 10.9557C5.76406 10.0712 5.85947 8.85586 6.61094 8.08439L8.35936 6.2938C9.22169 5.41035 10.5817 5.29601 11.5732 6.02362L11.6283 6.06292C12.3687 6.57322 13.3108 6.66565 14.1322 6.30854C15.0111 5.98459 15.6589 5.2112 15.8375 4.27233L15.8616 4.18882C16.0588 2.9459 17.107 2.03277 18.3367 2.03226H20.4472C21.7099 2.03167 22.7876 2.96702 22.9942 4.24286L23.0326 4.41479C23.2021 5.31419 23.8163 6.05854 24.6539 6.37977C25.4612 6.73462 26.3895 6.64195 27.1147 6.13415L27.2345 6.04572C28.2517 5.29495 29.6503 5.41042 30.5371 6.31836L32.1464 7.96894C32.953 8.79954 33.0543 10.1057 32.3862 11.0564C31.8627 11.851 31.7961 12.8722 32.2111 13.7312L32.3144 13.9769C32.6504 14.8157 33.3778 15.4236 34.2473 15.5931C35.384 15.7829 36.2199 16.7865 36.2236 17.9658V20.6995C36.2234 21.7395 35.4888 22.6267 34.4872 22.7972C33.6634 22.959 32.9923 23.5699 32.7387 24.3888C32.6268 24.7162 32.5021 25.0439 32.3646 25.3713C32.0445 26.0909 32.1156 26.9295 32.5518 27.5819C33.1271 28.4018 33.0378 29.5279 32.3407 30.242L30.1079 32.5312C29.4693 33.185 28.4622 33.2692 27.7287 32.7301C27.1162 32.3015 26.3229 32.2543 25.6661 32.6073C25.198 32.8448 24.7176 33.0556 24.2271 33.2385C23.541 33.481 23.0353 34.0823 22.9032 34.813C22.7632 35.7323 21.9935 36.4125 21.0851 36.4194H17.7562Z" stroke="white" stroke-width="4" stroke-linecap="round" stroke-linejoin="round"/>
<path fill-rule="evenodd" clip-rule="evenodd" d="M25.0305 19.2254C25.0305 22.3902 22.5254 24.9557 19.435 24.9557C16.3447 24.9557 13.8397 22.3902 13.8397 19.2254C13.8397 16.0605 16.3447 13.495 19.435 13.495C22.5254 13.495 25.0305 16.0605 25.0305 19.2254Z" stroke="white" stroke-width="4" stroke-linecap="round" stroke-linejoin="round"/>
</svg>
