<svg width="41" height="45" viewBox="0 0 41 45" fill="none" xmlns="http://www.w3.org/2000/svg">
<path d="M8.2087 29.9395H10.2783M8.2087 36.1482H10.2783M30.9739 36.1482H33.0435M30.9739 29.9395H33.0435M16.487 43.3917V35.1135C16.487 32.8274 18.34 30.9743 20.6261 30.9743C22.9121 30.9743 24.7652 32.8274 24.7652 35.1135V43.3917M20.6261 8.2087H30.6428C30.7587 8.2087 30.8166 8.2087 30.8609 8.18614C30.8998 8.16629 30.9315 8.13465 30.9514 8.0957C30.9739 8.05143 30.9739 7.99348 30.9739 7.87757V2.33113C30.9739 2.21521 30.9739 2.15727 30.9514 2.113C30.9315 2.07405 30.8998 2.04241 30.8609 2.02256C30.8166 2 30.7587 2 30.6428 2H20.9572C20.8413 2 20.7834 2 20.7391 2.02256C20.7002 2.04241 20.6685 2.07405 20.6486 2.113C20.6261 2.15727 20.6261 2.21521 20.6261 2.33113V8.2087ZM20.6261 8.2087V13.7777M20.6261 13.7777C21.029 13.7777 21.4322 13.8366 21.8221 13.9543C22.7074 14.2215 23.4906 14.9262 25.0564 16.3355L30.9739 21.6613L34.2358 22.4767C36.0294 22.9252 36.9262 23.1493 37.594 23.6493C38.183 24.0905 38.6439 24.6808 38.9291 25.3594C39.2522 26.1284 39.2522 27.0527 39.2522 28.9017V36.7691C39.2522 39.0872 39.2522 40.2464 38.801 41.1318C38.4043 41.9105 37.771 42.5438 36.9922 42.9406C36.1069 43.3917 34.9477 43.3917 32.6296 43.3917H8.62261C6.30449 43.3917 5.14541 43.3917 4.26001 42.9406C3.48117 42.5438 2.84796 41.9105 2.45114 41.1318C2 40.2464 2 39.0872 2 36.7691V28.9017C2 27.0527 2 26.1284 2.32312 25.3594C2.6082 24.6808 3.06908 24.0905 3.65822 23.6493C4.32596 23.1493 5.22277 22.9252 7.01638 22.4767L10.2783 21.6613L16.1958 16.3355C17.7616 14.9262 18.5447 14.2215 19.4301 13.9543C19.82 13.8366 20.2231 13.7777 20.6261 13.7777ZM20.6882 23.213H20.7037M20.6882 24.7652C19.831 24.7652 19.136 24.0703 19.136 23.213C19.136 22.3558 19.831 21.6609 20.6882 21.6609C21.5454 21.6609 22.2403 22.3558 22.2403 23.213C22.2403 24.0703 21.5454 24.7652 20.6882 24.7652Z" stroke="white" stroke-width="3" stroke-linecap="round" stroke-linejoin="round"/>
</svg>
