<svg width="74" height="95" viewBox="0 0 74 95" fill="none" xmlns="http://www.w3.org/2000/svg">
<path d="M54.6483 72.5836H66.5225L53.6824 85.972V73.5284C53.6824 73.0071 54.1158 72.5836 54.6483 72.5836ZM40.3192 20.5998L43.9798 20.1366L41.6946 16.9291L40.3192 20.5998ZM73.6719 2.3066V67.9704H54.6483C51.5146 67.9704 48.9658 70.4639 48.9658 73.5284V94.1093H2.90555C1.60282 94.1093 0.547241 93.0764 0.547241 91.8027V2.3066C0.547241 1.0329 1.60282 0 2.90555 0H71.3131C72.6159 0 73.6719 1.0329 73.6719 2.3066ZM34.1598 30.3364C34.4277 30.4324 34.7013 30.478 34.9715 30.478C35.9328 30.478 36.836 29.8986 37.1855 28.9644L38.4897 25.4833L47.0192 24.4038L49.1865 27.4458C49.6454 28.0893 50.3779 28.4339 51.1231 28.4339C51.5887 28.4339 52.0589 28.2992 52.4693 28.0197C53.5381 27.2912 53.8003 25.8538 53.056 24.8089L42.9733 10.657C42.9695 10.6519 42.9643 10.6477 42.9605 10.6427C42.8955 10.5522 42.8176 10.471 42.7389 10.3903C42.7101 10.3608 42.6856 10.3253 42.6554 10.2976C42.5931 10.2404 42.5205 10.1933 42.4516 10.1426C42.3964 10.102 42.3455 10.0554 42.2875 10.0199C42.2431 9.99265 42.1922 9.97466 42.1455 9.95021C42.0545 9.90269 41.9644 9.85379 41.8682 9.81873C41.8616 9.81643 41.8564 9.81227 41.8498 9.80997C41.7946 9.79013 41.738 9.78367 41.6828 9.76799C41.5965 9.744 41.5111 9.71724 41.4225 9.70294C41.3442 9.69003 41.2668 9.6891 41.1885 9.68449C41.1145 9.67988 41.0409 9.67157 40.9664 9.67342C40.8866 9.67572 40.8093 9.6891 40.7305 9.69925C40.6574 9.70848 40.5843 9.71448 40.5117 9.73062C40.4334 9.74815 40.3589 9.77629 40.2824 9.80167C40.2141 9.82427 40.1447 9.84272 40.0777 9.87225C39.9872 9.91192 39.9037 9.96313 39.8188 10.0134C39.7764 10.0388 39.7315 10.0554 39.69 10.0835C39.6853 10.0868 39.6815 10.0914 39.6768 10.0946C39.582 10.1601 39.4967 10.2376 39.4122 10.3165C39.3835 10.3433 39.35 10.3659 39.3226 10.3935C39.2655 10.4526 39.2193 10.5218 39.1688 10.5868C39.1255 10.6427 39.0759 10.6948 39.0387 10.7538C39.0141 10.7921 38.9981 10.8369 38.9755 10.877C38.9231 10.9716 38.8708 11.0657 38.8326 11.1658C38.8302 11.1718 38.8264 11.1764 38.8245 11.1824L32.7571 27.377C32.309 28.5732 32.9368 29.8981 34.1598 30.3364ZM40.3636 70.277C40.3636 69.0033 39.308 67.9704 38.0053 67.9704H14.116C12.8133 67.9704 11.7577 69.0033 11.7577 70.277C11.7577 71.5507 12.8133 72.5836 14.116 72.5836H38.0057C39.308 72.5836 40.3636 71.5507 40.3636 70.277ZM50.3902 56.2068C50.3902 54.9331 49.3346 53.9002 48.0319 53.9002H14.116C12.8133 53.9002 11.7577 54.9331 11.7577 56.2068C11.7577 57.4805 12.8133 58.5134 14.116 58.5134H48.0319C49.3346 58.5134 50.3902 57.4805 50.3902 56.2068ZM57.7448 42.1365C57.7448 40.8628 56.6892 39.8299 55.3865 39.8299H14.116C12.8133 39.8299 11.7577 40.8628 11.7577 42.1365C11.7577 43.4102 12.8133 44.4431 14.116 44.4431H55.3865C56.6892 44.4431 57.7448 43.4102 57.7448 42.1365ZM66.7286 14.771C66.5616 13.5084 65.3834 12.6157 64.0868 12.7795L60.9356 13.1785L60.5276 10.0964C60.3606 8.83335 59.1829 7.9407 57.8858 8.10493C56.5944 8.26824 55.6822 9.42523 55.8497 10.6883L56.2577 13.7704L53.1065 14.1694C51.8151 14.3327 50.9029 15.4893 51.0703 16.7528C51.2241 17.9158 52.2386 18.7637 53.4065 18.7637C53.5069 18.7637 53.6093 18.7573 53.7121 18.7444L56.8633 18.3453L57.2713 21.4274C57.425 22.5904 58.4396 23.4383 59.6074 23.4383C59.7079 23.4383 59.8102 23.4318 59.9126 23.4189C61.204 23.2556 62.1162 22.0986 61.9487 20.8355L61.5408 17.7534L64.6919 17.3544C65.9838 17.1911 66.8955 16.0346 66.7286 14.771Z" fill="#323232"/>
</svg>
