<svg width="31" height="35" viewBox="0 0 31 35" fill="none" xmlns="http://www.w3.org/2000/svg">
<path d="M8.66659 24.333C7.72311 24.333 6.95825 25.0978 6.95825 26.0413C6.95825 26.9848 7.72311 27.7497 8.66659 27.7497C9.61006 27.7497 10.3749 26.9848 10.3749 26.0413C10.3749 25.0978 9.61006 24.333 8.66659 24.333ZM8.66659 24.333L8.67866 17.5M8.66659 26.0413L8.67866 26.0535M29.1666 5.54167C29.1666 7.42864 27.6369 8.95833 25.7499 8.95833C23.8629 8.95833 22.3333 7.42864 22.3333 5.54167C22.3333 3.65469 23.8629 2.125 25.7499 2.125C27.6369 2.125 29.1666 3.65469 29.1666 5.54167ZM15.4999 26.0413C15.4999 29.8154 12.4405 32.8747 8.66659 32.8747C4.89264 32.8747 1.83325 29.8154 1.83325 26.0413C1.83325 24.3084 2.47839 22.726 3.54159 21.5214V7.25C3.54159 4.41955 5.83613 2.125 8.66659 2.125C11.497 2.125 13.7916 4.41955 13.7916 7.25V21.5214C14.8549 22.726 15.4999 24.3084 15.4999 26.0413Z" stroke="white" stroke-width="3.41667" stroke-linecap="round" stroke-linejoin="round"/>
</svg>
